<svg id="Layer_1" height="512" viewBox="0 0 128 128" width="512" xmlns="http://www.w3.org/2000/svg" data-name="Layer 1"><path d="m90.878 26.171a27.573 27.573 0 0 0 -53.756 0c-20.295 3.085-32.372 9.238-32.372 16.549 0 7.055 10.914 12.934 29.954 16.157 7.346 6.111 17.984 9.613 29.296 9.613s21.95-3.5 29.3-9.613c19.041-3.224 29.954-9.1 29.954-16.157-.004-7.311-12.081-13.464-32.376-16.549zm-26.878-17.921a24.107 24.107 0 0 1 24.08 24.08 24.385 24.385 0 0 1 -.427 4.553 96.417 96.417 0 0 1 -23.653 2.797 96.417 96.417 0 0 1 -23.653-2.8 24.385 24.385 0 0 1 -.427-4.553 24.107 24.107 0 0 1 24.08-24.077zm-21.313 51.755a188.12 188.12 0 0 0 21.313 1.185 188.107 188.107 0 0 0 21.313-1.185 45.966 45.966 0 0 1 -21.313 4.985 45.963 45.963 0 0 1 -21.313-4.985zm49.573-4.505a174.407 174.407 0 0 1 -28.26 2.19 174.355 174.355 0 0 1 -28.263-2.19c-18.988-3.147-27.487-8.687-27.487-12.78 0-4.115 8.877-9.8 28.29-12.917-.076.833-.12 1.675-.12 2.527a27.875 27.875 0 0 0 .736 6.371 1.752 1.752 0 0 0 1.244 1.287 98.95 98.95 0 0 0 25.6 3.192 98.95 98.95 0 0 0 25.6-3.192 1.752 1.752 0 0 0 1.244-1.288 27.875 27.875 0 0 0 .736-6.371c0-.852-.044-1.694-.12-2.527 19.413 3.112 28.29 8.8 28.29 12.917 0 4.094-8.499 9.634-27.49 12.781z"/><path d="m104.693 46.391a107.705 107.705 0 0 1 -22.673 4.442 1.75 1.75 0 0 0 .35 3.483 111.309 111.309 0 0 0 23.417-4.6 1.751 1.751 0 0 0 -1.094-3.326z"/><path d="m35.357 67.967a1.755 1.755 0 0 0 -2.07 1.356l-10.808 51.819a1.751 1.751 0 0 0 1.356 2.071 1.772 1.772 0 0 0 .359.037 1.752 1.752 0 0 0 1.712-1.393l10.807-51.82a1.749 1.749 0 0 0 -1.356-2.07z"/><path d="m94.713 69.323a1.75 1.75 0 1 0 -3.426.714l10.807 51.82a1.752 1.752 0 0 0 1.712 1.393 1.772 1.772 0 0 0 .359-.037 1.751 1.751 0 0 0 1.356-2.071z"/><path d="m76.553 70.92a1.75 1.75 0 0 0 -1.633 1.86l3.167 48.833a1.75 1.75 0 0 0 1.745 1.637h.115a1.75 1.75 0 0 0 1.633-1.86l-3.167-48.837a1.743 1.743 0 0 0 -1.86-1.633z"/><path d="m51.447 70.92a1.748 1.748 0 0 0 -1.86 1.633l-3.167 48.833a1.75 1.75 0 0 0 1.633 1.86h.115a1.75 1.75 0 0 0 1.745-1.637l3.167-48.829a1.75 1.75 0 0 0 -1.633-1.86z"/></svg>